<svg xmlns="http://www.w3.org/2000/svg" viewBox="0 0 900 1200">
  <defs>
    <linearGradient id="bg" x1="0" y1="0" x2="1" y2="1"><stop stop-color="#f7f9fc"/><stop offset="1" stop-color="#e8f2ef"/></linearGradient>
    <pattern id="grid" width="70" height="70" patternUnits="userSpaceOnUse"><path d="M70 0H0V70" fill="none" stroke="#1e3a8a" stroke-opacity=".06"/></pattern>
  </defs>
  <rect width="900" height="1200" fill="url(#bg)"/><rect width="900" height="1200" fill="url(#grid)"/>
  <rect x="74" y="76" width="752" height="1048" rx="42" fill="#fff" stroke="#dfe4eb"/>
  <g fill="none" stroke="#1e3a8a" stroke-width="8" stroke-linecap="round" stroke-linejoin="round">
    <path d="M170 770H730"/><path d="M220 770V570h150v200M530 770V440h150v330"/>
    <circle cx="295" cy="510" r="62" stroke="#0f766e"/><circle cx="605" cy="380" r="62" stroke="#0f766e"/>
    <path d="M295 448V290M605 318V190"/><path d="m265 325 30-35 30 35M575 225l30-35 30 35"/>
  </g>
  <g fill="#0f766e"><circle cx="295" cy="510" r="11"/><circle cx="605" cy="380" r="11"/></g>
  <text x="130" y="930" fill="#111827" font-family="Arial" font-size="58" font-weight="700">ASSEMBLY FLOW</text>
  <text x="132" y="990" fill="#4b5563" font-family="Arial" font-size="24">Capacity • Balance • Standard Work</text>
</svg>
