<svg xmlns="http://www.w3.org/2000/svg" viewBox="0 0 1000 700">
  <defs><linearGradient id="bg" x1="0" y1="0" x2="1" y2="1"><stop stop-color="#f8fafc"/><stop offset="1" stop-color="#edf4f2"/></linearGradient></defs>
  <rect width="1000" height="700" rx="34" fill="url(#bg)"/>
  <rect x="48" y="48" width="904" height="604" rx="28" fill="#fff" stroke="#e2e6ec"/>
  <circle cx="300" cy="330" r="145" fill="none" stroke="#e8edf2" stroke-width="28"/>
  <path d="M300 185a145 145 0 1 1-135 92" fill="none" stroke="#0f766e" stroke-width="28" stroke-linecap="round"/>
  <text x="226" y="350" fill="#1e3a8a" font-family="Arial" font-size="70" font-weight="700">85.2%</text><text x="263" y="394" fill="#4b5563" font-family="Arial" font-size="23">OEE</text>
  <g><rect x="560" y="205" width="300" height="26" rx="13" fill="#edf0f4"/><rect x="560" y="205" width="260" height="26" rx="13" fill="#1e3a8a"/><rect x="560" y="305" width="300" height="26" rx="13" fill="#edf0f4"/><rect x="560" y="305" width="284" height="26" rx="13" fill="#0f766e"/><rect x="560" y="405" width="300" height="26" rx="13" fill="#edf0f4"/><rect x="560" y="405" width="245" height="26" rx="13" fill="#4462a7"/></g>
  <g fill="#4b5563" font-family="Arial" font-size="20"><text x="560" y="185">Availability</text><text x="560" y="285">Performance</text><text x="560" y="385">Quality</text></g>
</svg>
