<svg xmlns="http://www.w3.org/2000/svg" viewBox="0 0 1000 700">
  <defs><linearGradient id="g" x1="0" y1="0" x2="1" y2="1"><stop stop-color="#052e2b"/><stop offset=".5" stop-color="#0f766e"/><stop offset="1" stop-color="#172554"/></linearGradient></defs>
  <rect width="1000" height="700" rx="30" fill="url(#g)"/>
  <g fill="none" stroke="#fff" stroke-opacity=".16"><path d="M0 100H1000M0 200H1000M0 300H1000M0 400H1000M0 500H1000M0 600H1000"/><path d="M100 0V700M200 0V700M300 0V700M400 0V700M500 0V700M600 0V700M700 0V700M800 0V700M900 0V700"/></g>
  <circle cx="300" cy="330" r="150" fill="none" stroke="#fff" stroke-opacity=".16" stroke-width="28"/><path d="M300 180a150 150 0 1 1-139 94" fill="none" stroke="#5eead4" stroke-width="28" stroke-linecap="round"/>
  <text x="225" y="350" fill="#fff" font-family="Arial" font-size="72" font-weight="700">85.2%</text><text x="260" y="395" fill="#ccfbf1" font-family="Arial" font-size="24">OEE</text>
  <g fill="#fff"><rect x="560" y="200" width="300" height="32" rx="16" opacity=".15"/><rect x="560" y="200" width="260" height="32" rx="16" opacity=".8"/><rect x="560" y="300" width="300" height="32" rx="16" opacity=".15"/><rect x="560" y="300" width="284" height="32" rx="16" opacity=".8"/><rect x="560" y="400" width="300" height="32" rx="16" opacity=".15"/><rect x="560" y="400" width="245" height="32" rx="16" opacity=".8"/></g>
  <text x="560" y="180" fill="#dbeafe" font-family="Arial" font-size="22">Availability</text><text x="560" y="280" fill="#dbeafe" font-family="Arial" font-size="22">Performance</text><text x="560" y="380" fill="#dbeafe" font-family="Arial" font-size="22">Quality</text>
</svg>
