<svg xmlns="http://www.w3.org/2000/svg" viewBox="0 0 900 1200">
  <defs><linearGradient id="g" x1="0" y1="0" x2="1" y2="1"><stop stop-color="#172554"/><stop offset=".5" stop-color="#1d4ed8"/><stop offset="1" stop-color="#0f766e"/></linearGradient><pattern id="p" width="70" height="70" patternUnits="userSpaceOnUse"><path d="M70 0H0V70" fill="none" stroke="#fff" stroke-opacity=".08"/></pattern></defs>
  <rect width="900" height="1200" fill="url(#g)"/><rect width="900" height="1200" fill="url(#p)"/>
  <g fill="none" stroke="#fff" stroke-opacity=".55" stroke-width="5">
    <path d="M120 890H780"/><path d="M190 890V650h170v240M540 890V510h170v380"/><circle cx="275" cy="590" r="70"/><circle cx="625" cy="430" r="70"/>
    <path d="M275 520V340M625 360V180"/><path d="m240 380 35-40 35 40M590 220l35-40 35 40"/>
  </g>
  <g fill="#fff"><circle cx="275" cy="590" r="11"/><circle cx="625" cy="430" r="11"/></g>
  <text x="85" y="1050" fill="#fff" font-family="Arial" font-size="64" font-weight="700">ASSEMBLY FLOW</text><text x="88" y="1110" fill="#dbeafe" font-family="Arial" font-size="24">Capacity • Balance • Standard Work</text>
</svg>
