<svg xmlns="http://www.w3.org/2000/svg" viewBox="0 0 1200 700">
  <defs><linearGradient id="g" x1="0" y1="0" x2="1" y2="1"><stop stop-color="#111827"/><stop offset=".5" stop-color="#1e3a8a"/><stop offset="1" stop-color="#0f766e"/></linearGradient></defs>
  <rect width="1200" height="700" fill="url(#g)"/>
  <g stroke="#fff" stroke-opacity=".22" fill="none"><path d="M0 100H1200M0 200H1200M0 300H1200M0 400H1200M0 500H1200M0 600H1200"/><path d="M100 0V700M200 0V700M300 0V700M400 0V700M500 0V700M600 0V700M700 0V700M800 0V700M900 0V700M1000 0V700M1100 0V700"/></g>
  <g fill="#fff"><circle cx="300" cy="330" r="75" opacity=".92"/><circle cx="600" cy="220" r="75" opacity=".82"/><circle cx="900" cy="360" r="75" opacity=".72"/></g>
  <g stroke="#5eead4" stroke-width="8" fill="none"><path d="M370 305 525 245M675 245 825 335M375 365 825 385"/></g>
  <text x="90" y="590" fill="#fff" font-family="Arial" font-size="70" font-weight="700">CROSS-FUNCTIONAL EXECUTION</text><text x="95" y="640" fill="#bfdbfe" font-family="Arial" font-size="24">Engineering • Production • Quality • Materials</text>
</svg>
