<svg xmlns="http://www.w3.org/2000/svg" viewBox="0 0 1200 700">
  <rect width="1200" height="700" fill="#f7f9fc"/>
  <rect x="45" y="45" width="1110" height="610" rx="34" fill="#fff" stroke="#e2e6ec"/>
  <g stroke="#1e3a8a" stroke-opacity=".06" fill="none"><path d="M80 130H1120M80 230H1120M80 330H1120M80 430H1120M80 530H1120"/><path d="M180 80V620M380 80V620M580 80V620M780 80V620M980 80V620"/></g>
  <g fill="#1e3a8a"><circle cx="300" cy="310" r="68"/><circle cx="600" cy="205" r="68" fill="#0f766e"/><circle cx="900" cy="340" r="68" fill="#4462a7"/></g>
  <g stroke="#0f766e" stroke-width="8" fill="none" stroke-linecap="round"><path d="M365 288 532 228M668 230 834 315M368 348 832 365"/></g>
  <text x="95" y="585" fill="#111827" font-family="Arial" font-size="62" font-weight="700">CROSS-FUNCTIONAL EXECUTION</text><text x="100" y="630" fill="#4b5563" font-family="Arial" font-size="22">Engineering • Production • Quality • Materials</text>
</svg>
